<?xml version="1.0" encoding="UTF-8" standalone="no"?>
<svg
   version="1.1"
   viewBox="0 0 1024 1024"
   width="1024.0pt"
   height="1024.0pt"
   id="svg54"
   sodipodi:docname="ic_launcher.svg"
   inkscape:export-filename="ic_launcher_background.png"
   inkscape:export-xdpi="144"
   inkscape:export-ydpi="144"
   xml:space="preserve"
   inkscape:version="1.3.2 (091e20e, 2023-11-25)"
   xmlns:inkscape="http://www.inkscape.org/namespaces/inkscape"
   xmlns:sodipodi="http://sodipodi.sourceforge.net/DTD/sodipodi-0.dtd"
   xmlns:xlink="http://www.w3.org/1999/xlink"
   xmlns="http://www.w3.org/2000/svg"
   xmlns:svg="http://www.w3.org/2000/svg"><defs
     id="defs54"><inkscape:path-effect
       effect="powerclip"
       id="path-effect60"
       is_visible="true"
       lpeversion="1"
       inverse="true"
       flatten="false"
       hide_clip="false"
       message="Use fill-rule evenodd on &lt;b&gt;fill and stroke&lt;/b&gt; dialog if no flatten result after convert clip to paths." /><clipPath
       clipPathUnits="userSpaceOnUse"
       id="clipPath60"><circle
         style="display:none;fill:#000000;fill-opacity:0.6;stroke-width:2.39612"
         id="circle60"
         r="132.88443"
         cy="661.95087"
         cx="501.36911"
         d="M 634.25354,661.95087 A 132.88443,132.88443 0 0 1 501.36911,794.8353 132.88443,132.88443 0 0 1 368.48468,661.95087 132.88443,132.88443 0 0 1 501.36911,529.06644 132.88443,132.88443 0 0 1 634.25354,661.95087 Z" /><path
         id="lpe_path-effect60"
         style="display:inline;fill:#000000;fill-opacity:0.6;stroke-width:2.39612"
         class="powerclip"
         d="M 370.65398,562.07109 H 652.85251 V 843.74892 H 370.65398 Z m 263.59956,99.87978 A 132.88443,132.88443 0 0 0 501.36911,529.06644 132.88443,132.88443 0 0 0 368.48468,661.95087 132.88443,132.88443 0 0 0 501.36911,794.8353 132.88443,132.88443 0 0 0 634.25354,661.95087 Z" /></clipPath><clipPath
       clipPathUnits="userSpaceOnUse"
       id="clipPath1"><path
         style="fill:#000000;fill-opacity:0.333333;stroke-width:1.24272"
         d="m 224.51327,1022.7128 c -6.1515,-0.5128 -17.2686,-0.9914 -24.70481,-1.0636 -23.93709,-0.233 -51.16859,-7.7365 -79.68359,-21.95612 C 98.786367,989.05209 83.487266,978.02765 65.916563,960.63115 38.469567,933.45625 21.942468,906.06661 10.797063,869.28444 4.4938712,848.48227 2.8408724,834.17286 1.3224693,787.26504 -0.3734313,734.87335 0.58516132,239.41661 2.4488662,205.05145 3.4633718,186.34631 4.4089718,179.22406 7.5224662,166.83983 17.700862,126.35451 36.315867,93.162144 64.838763,64.639164 82.538768,46.939206 97.604467,36.097003 120.12487,24.851843 153.07126,8.4006493 175.11026,3.2218128 218.92096,1.6362097 263.79837,0.01200155 782.50204,0.37914097 815.42584,2.058414 c 25.40821,1.2959347 29.49297,1.8263114 44.73786,5.8087736 27.01757,7.0579014 46.43837,15.6972674 68.48575,30.4659444 33.85183,22.676077 61.44149,56.037913 77.23825,93.397948 11.1459,26.36021 15.1832,45.20873 16.6364,77.66989 1.3475,30.09839 1.3936,573.90217 0.051,604.58263 -1.1429,26.11759 -3.9101,42.62372 -10.4111,62.09578 -14.85481,44.49516 -43.79509,82.92601 -82.22668,109.19152 -32.51986,22.2252 -66.80109,34.2715 -103.94852,36.5273 -23.66697,1.4372 -584.96246,2.2906 -601.47586,0.9146 z"
         id="path1"
         inkscape:label="mask macos" /></clipPath></defs><sodipodi:namedview
     id="namedview54"
     pagecolor="#ffffff"
     bordercolor="#000000"
     borderopacity="0.25"
     inkscape:showpageshadow="2"
     inkscape:pageopacity="0.0"
     inkscape:pagecheckerboard="true"
     inkscape:deskcolor="#d1d1d1"
     inkscape:document-units="pt"
     inkscape:zoom="0.1311816"
     inkscape:cx="1658.0069"
     inkscape:cy="-499.30782"
     inkscape:window-width="1728"
     inkscape:window-height="966"
     inkscape:window-x="0"
     inkscape:window-y="38"
     inkscape:window-maximized="1"
     inkscape:current-layer="svg54" /><g
     id="g64"
     inkscape:label="ic_launcher"
     style="display:inline"><g
       id="g63"
       inkscape:label="background"
       style="display:inline"><path
         d="M 0,0 H 1024 V 1024 H 0 Z"
         fill="#f1f2f3"
         id="path1-4-3-8"
         inkscape:label="background"
         style="display:inline;fill:#6ed3f7;fill-opacity:1;stroke-width:1" /><g
         id="g61"
         inkscape:label="stars"
         style="display:none"
         transform="matrix(1.4019559,0,0,1.4019559,-206.23796,-252.99102)"><path
           d="m 481.84,186.7 c 2.74,6.56 4.4,15.02 8.93,20.54 4.4,5 12.12,7.01 18.14,9.34 -5.65,2.8 -13.29,4.12 -17.49,8.84 -5.56,6.31 -6.98,14.86 -9.73,22.54 -1.49,-8.37 -3.27,-16.04 -9.05,-22.6 -4.72,-4.99 -11.75,-6.31 -17.93,-8.62 6.33,-3.35 13.83,-4.07 18.46,-9.55 5.22,-6.09 6.55,-13.04 8.67,-20.49 z"
           fill="#f1f2f3"
           id="path3"
           style="display:inline" /><path
           d="m 827.62217,512.37831 c 2.85746,6.84123 4.58862,15.6639 9.31282,21.42054 4.58863,5.21435 12.63958,7.31052 18.91766,9.74041 -5.89221,2.92003 -13.85974,4.29662 -18.23979,9.21897 -5.79836,6.5805 -7.27923,15.49704 -10.14712,23.50628 -1.55388,-8.72882 -3.41019,-16.72763 -9.43798,-23.56886 -4.92234,-5.20392 -12.25372,-6.5805 -18.69865,-8.98953 6.60137,-3.49362 14.42289,-4.24448 19.25138,-9.95941 5.44378,-6.35108 6.83079,-13.59902 9.04168,-21.3684 z"
           fill="#f1f2f3"
           id="path3-9"
           style="display:inline;stroke-width:1.04287" /><path
           d="m 677.84198,225.4706 c 3.40198,5.9351 4.55228,13.17959 9.64301,17.86648 4.07502,3.64672 9.63076,5.7393 14.31766,8.54164 -5.49456,2.5576 -11.55203,4.54005 -15.68824,9.20246 -4.14845,4.46662 -5.70259,11.45413 -7.95426,17.05882 -2.75339,-5.61693 -4.36872,-12.44535 -8.38256,-17.10777 -3.84251,-4.80926 -10.71988,-6.90184 -16.06759,-9.88775 4.94388,-2.92471 10.7566,-4.88268 15.19874,-8.50493 5.22534,-4.49109 6.48578,-11.06253 8.93324,-17.16895 z"
           fill="#f1f2f3"
           id="path5"
           style="display:inline;stroke-width:1.22373" /><path
           d="m 278.55,322.2 c 1.26,7.7 3.92,16.19 8.98,22.26 5.28,6.08 11.95,7 18.7,10.68 -6.63,2.96 -12.94,3.45 -18.37,8.73 -6.22,6.36 -6.9,14.51 -10.02,22.03 -2.07,-7.26 -3.9,-15.81 -9.16,-21.58 -5.45,-5.78 -13.44,-6.85 -20.54,-9.64 7.7,-2.99 17.8,-5.58 22.77,-12.7 3.67,-5.93 5.45,-13.19 7.64,-19.78 z"
           fill="#f1f2f3"
           id="path11"
           style="display:inline" /><path
           d="m 811.96201,409.21795 c 1.06953,6.53601 3.32742,13.74259 7.62251,18.895 4.48184,5.1609 10.14355,5.94182 15.87316,9.06553 -5.62775,2.51254 -10.98388,2.92847 -15.59304,7.4103 -5.27974,5.39857 -5.85694,12.31655 -8.5053,18.69977 -1.75708,-6.16252 -3.31044,-13.42004 -7.7753,-18.3178 -4.62614,-4.90624 -11.4083,-5.8145 -17.43501,-8.18274 6.53601,-2.538 15.10921,-4.73648 19.3279,-10.78016 3.11522,-5.03358 4.62614,-11.1961 6.48508,-16.7899 z"
           fill="#f1f2f3"
           id="path11-3"
           style="display:inline;stroke-width:0.848832"
           inkscape:label="path11-3" /><path
           d="m 245.59,426.6 0.84,-0.24 c 0.51,5.18 1.32,10.29 2.94,15.25 2.28,7.15 5.03,14.13 11.51,18.5 6.6,4.35 15.38,6.29 22.92,8.44 -7.65,1.83 -16.6,3.62 -23.22,8.04 -6.35,4.15 -9.27,12.58 -11.47,19.49 -1.61,4.54 -1.37,9.57 -3.3,13.94 -1.65,-9.84 -4.21,-21.41 -10.35,-29.51 -6.33,-7.74 -18.35,-9.42 -27.38,-12.18 4.01,-1.67 8.17,-2.75 12.32,-3.99 8.28,-2.64 16.01,-8.22 19.55,-16.37 2.89,-6.83 4.58,-14.04 5.64,-21.37 z"
           fill="#f1f2f3"
           id="path17"
           style="display:inline" /><path
           d="m 591.39443,200.17623 0.47097,-0.13457 c 0.28595,2.90433 0.7401,5.76942 1.64841,8.55039 1.27835,4.00888 2.82022,7.92243 6.45344,10.37261 3.7005,2.43897 8.62328,3.52669 12.85082,4.73215 -4.28922,1.02605 -9.30732,2.02967 -13.01903,4.50788 -3.56032,2.32683 -5.19751,7.05337 -6.43101,10.92768 -0.9027,2.54549 -0.76814,5.36572 -1.85025,7.8159 -0.92512,-5.51711 -2.36047,-12.00419 -5.80305,-16.54571 -3.54912,-4.33967 -10.28851,-5.28162 -15.35146,-6.8291 2.24833,-0.93634 4.58077,-1.54187 6.90759,-2.23712 4.64245,-1.4802 8.97651,-4.6088 10.96133,-9.17835 1.62037,-3.82946 2.56792,-7.87197 3.16224,-11.98176 z"
           fill="#f1f2f3"
           id="path17-0"
           style="display:inline;stroke-width:0.560681" /></g></g><g
       id="g62"
       inkscape:label="foreground"
       transform="matrix(1.4019559,0,0,1.4019559,-219.37727,-227.27563)"
       style="display:inline"><g
         id="g60"
         inkscape:label="owl"
         transform="translate(12.754294,-26.861023)"><path
           d="m 334.09,247.22 c 19.7,0.89 38.72,6.37 56.84,13.88 12.75,5.82 25.3,12.3 37.08,19.92 2.52,1.56 5.09,3.77 7.97,4.58 1.93,-0.3 3.82,-1.19 5.61,-1.96 32,-15.04 68.22,-21.16 103.41,-21 15.79,0.45 31.71,1.88 47.16,5.24 15.21,3.5 30.11,8.19 44.36,14.6 22.85,9.45 43.25,23.12 62.5,38.5 2.38,1.9 4.64,4.08 7.21,5.72 1.27,1.05 2.88,0.2 4.29,-0.08 5.74,-1.82 11.49,-3.5 17.39,-4.72 26.54,-5.58 53.76,-6.26 79.97,1.42 -1.54,6.25 -4.5,11.5 -7.34,17.23 -6.59,12.95 -14.27,25.15 -23.94,36.04 -4.81,5.55 -10.25,10.41 -15.3,15.71 2.28,5.03 5.73,9.33 8.03,14.34 2.16,4.56 4.08,9.23 5.54,14.06 -7.24,-1.8 -12.49,-6.34 -19.92,-6.88 1.1,3.2 2.47,6.17 4.12,9.11 4.84,8.67 8.5,18.08 11.44,27.54 2.86,9.11 4.12,18.27 5.21,27.73 1.79,20.35 0.19,40.94 -5.44,60.61 -1.52,6.25 -5.06,11.9 -6.42,18.12 0.99,3.03 3.01,5.82 4.67,8.53 13.04,20.36 21.92,42.87 27.86,66.24 2.95,12.87 4.73,26.1 5.59,39.28 0.12,11.42 0.3,23.22 -1.39,34.5 -3.97,33.09 -16.99,66.66 -39.63,91.5 -18.22,20.22 -42.74,34.47 -69.58,39.42 -9.83,1.74 -20.25,3.19 -30.23,2.45 -1.18,-3.54 -2.07,-7.13 -2.82,-10.78 -4.71,2.63 -8.9,6.02 -13.61,8.65 -21.74,12.34 -45.48,20.28 -70.72,19.72 -6.55,-0.1 -11.81,-2.07 -17.98,-0.51 -9.91,2.25 -19.81,4.16 -29.98,4.85 -18.29,1 -36.58,0.01 -54.42,-4.41 -3.79,-0.78 -8.18,-2.53 -12.02,-1.73 -13.28,2.66 -27.16,1.31 -40.18,-2.04 -21.68,-5.42 -41.67,-15.99 -58.91,-30.12 -3.85,-3.07 -8.06,-7.74 -12.93,-8.91 -5.02,-1.02 -10.26,-1.2 -15.37,-1.5 -0.83,3.27 -1.68,6.54 -2.54,9.8 -17.36,-2.21 -34.38,-8.33 -49.56,-16.99 -24.95,-14.31 -44.25,-36.58 -56.51,-62.46 -9.26,-20.37 -14.24,-43.01 -13.56,-65.42 0.01,-16.5 2.51,-33.12 6.99,-48.99 6.32,-21.9 15.54,-42.92 27.82,-62.15 11.16,-16.72 23.13,-32.35 38.21,-45.77 8.32,-7.79 17.6,-14.22 27.27,-20.19 -0.4,-5.82 -2.02,-11.42 -2.52,-17.22 -0.4,-9.2 -0.55,-18.49 -0.13,-27.68 2,-27.06 11.14,-53.5 26.36,-75.96 6.97,-10.82 15.75,-19.49 23.99,-29.16 -6.94,-2.3 -13.74,-1.86 -20.93,-2.13 5.59,-8.13 13.08,-13.82 20.73,-19.83 -2.84,-5.06 -6.2,-9.75 -8.8,-14.96 -7.36,-14.49 -12.37,-30.23 -14.55,-46.33 -0.69,-6.3 -1.45,-13.15 -0.39,-19.41 z"
           fill="#020214"
           id="path6" /><path
           d="m 363.99,275.93 c 5.63,1.14 11.15,3.46 16.45,5.64 23.6,10.13 46.58,21.48 69,34 6.01,3.7 12.36,6.73 18.52,10.16 -6.87,-1.91 -13.5,-4.5 -20.38,-6.39 -10,-2.92 -20.3,-3.81 -30.29,-6.81 -15.01,-4.71 -29.03,-11.33 -40.49,-22.33 -4.47,-4.31 -9.7,-8.87 -12.81,-14.27 z"
           fill="#f1f2f3"
           id="path7" /><path
           d="m 550.04,285.25 c 18.11,1 35.97,3.91 53.26,9.45 16.01,5.08 31.39,11.46 45.77,20.21 7.3,4.5 14.5,9.16 21.24,14.48 -8.5,-0.44 -16.62,-3.13 -25.15,-3.57 -4.98,-2.7 -9.72,-5.74 -14.93,-8.02 -16.87,-7.55 -35.06,-12.4 -53.41,-14.57 -9.12,-1.24 -19.86,-2.32 -28.64,0.96 -0.29,5.93 0.87,11.7 0.99,17.6 -5.37,-3.43 -9.97,-7.46 -15.84,-10.13 -7.23,-3.55 -16.05,-4.8 -23.75,-2.13 -5.56,2.08 -10.7,4.44 -14.2,9.47 -8.67,-3.29 -17.37,-6.38 -26.21,-9.21 -4.27,-2.14 -8.58,-4.12 -12.59,-6.75 19.93,-9.9 40.7,-13.77 62.57,-16.64 10.25,-0.83 20.6,-1.5 30.89,-1.15 z"
           fill="#f1f2f3"
           id="path8" /><path
           d="m 576.82,303.23 c 18.35,2.17 36.54,7.02 53.41,14.57 5.21,2.28 9.95,5.32 14.93,8.02 -17.77,-0.39 -35.08,4.41 -50.72,12.67 -12.56,6.33 -23.5,15.08 -33.16,25.24 -8.1,-16.29 -20.49,-31.57 -37.65,-38.73 1.8,3.73 3.1,7.38 3.26,11.56 -2.64,-1.05 -5.13,-2.31 -7.46,-3.95 -7.46,-5.23 -15.91,-9.47 -24.05,-13.61 3.5,-5.03 8.64,-7.39 14.2,-9.47 7.7,-2.67 16.52,-1.42 23.75,2.13 5.87,2.67 10.47,6.7 15.84,10.13 -0.12,-5.9 -1.28,-11.67 -0.99,-17.6 8.78,-3.28 19.52,-2.2 28.64,-0.96 z"
           fill="#0ca7dd"
           id="path9" /><path
           d="m 469.17,309.79 c 8.84,2.83 17.54,5.92 26.21,9.21 8.14,4.14 16.59,8.38 24.05,13.61 2.33,1.64 4.82,2.9 7.46,3.95 -0.16,-4.18 -1.46,-7.83 -3.26,-11.56 17.16,7.16 29.55,22.44 37.65,38.73 9.66,-10.16 20.6,-18.91 33.16,-25.24 15.64,-8.26 32.95,-13.06 50.72,-12.67 8.53,0.44 16.65,3.13 25.15,3.57 3.14,2.01 5.98,4.14 7.95,7.39 -2.82,1.16 -5.66,2.16 -8.6,2.95 -10.03,2.71 -19.57,6.32 -29.42,9.48 -15.82,4.94 -31.71,10.86 -46.34,18.7 -8.24,4.33 -15.93,9.99 -23.15,15.85 -5.04,4.03 -9.26,8.91 -14.32,12.91 -6.42,-14.96 -16.4,-26.95 -27.14,-38.96 -11.81,-11.79 -24.63,-22.1 -38.09,-31.92 -7.16,-5.62 -15.04,-10.15 -22.03,-16 z"
           fill="#2e4163"
           id="path10" /><path
           d="m 440.5,333.35 c 16.16,3.65 31.62,9.93 45.95,18.19 21.49,13.05 40.08,31.81 51.99,54.03 5.48,10.49 9.73,21.71 12.93,33.1 0.51,-0.11 1.02,-0.23 1.52,-0.35 3.72,-0.75 6.23,-3.04 9.37,-5.02 20.73,-13.56 45.88,-21.83 70.74,-21.56 14.54,-0.25 29.06,2.84 42.21,9.05 18.99,9.34 35.67,24.95 44.98,44.06 7.05,13.48 10.23,28.99 9.61,44.15 -0.85,9.35 -2.53,18.95 -6.2,27.63 -7.05,16.09 -18.26,30.23 -32.7,40.29 -11.43,7.99 -25.39,12.67 -39.09,14.79 -7.29,1.21 -14.57,1.1 -21.91,0.46 -2.9,-2.79 -5.94,-5.43 -8.92,-8.14 -13.87,-12.33 -29.72,-22.05 -46.72,-29.45 0.73,-5.07 2.23,-10.51 1.65,-15.55 -0.62,-5.55 -2.31,-11.04 -5,-15.94 -6.51,-12.14 -19.29,-20.43 -32.99,-21.62 -6.39,-0.26 -12.93,1.19 -18.79,3.7 -10.75,4.59 -19.28,14.13 -22.54,25.36 -1.19,4.23 -1.5,8.85 -2,13.21 -7.52,1.65 -15.12,2.27 -22.57,4.28 -10.92,2.91 -21.53,6.75 -31.82,11.41 -13.61,-0.57 -27.27,-4.37 -39.63,-10.01 -11.11,-5.12 -20.38,-12.46 -29.37,-20.64 -15.16,-14.91 -26.43,-34.32 -30.74,-55.22 -3.56,-16.72 -3.21,-34.75 -1.81,-51.72 2.95,-10.04 7.73,-19.08 13.34,-27.85 7.16,-11.01 16.4,-21.31 27.37,-28.64 9.16,-6.16 18.8,-10.01 29.68,-11.93 -17.22,-8.27 -37.35,-9.49 -56.06,-6.89 8.26,-4.74 16.31,-9.29 25.49,-12.07 20.51,-6.38 41.22,-5.3 62.03,-1.11 z"
           fill="#f1f2f3"
           id="path12" /><path
           d="m 771.24,341.13 c -1.69,1.38 -3.4,2.72 -5.28,3.83 -13.93,7.88 -28.99,13.26 -45,14.62 -4.98,0.25 -9.98,0.2 -14.97,0.21 -6.71,0.05 -13.25,-1.14 -19.94,-1.4 -10.65,-0.6 -21.31,-0.51 -31.95,0.2 27.06,-8.44 55.7,-13.23 83.92,-15.65 10.85,-0.9 22.42,-2.77 33.22,-1.81 z"
           fill="#f1f2f3"
           id="path13" /><path
           d="m 684.22,373.77 c 12.56,1.69 25.79,4.3 37.32,9.68 11.24,5.05 21.22,12.47 30.26,20.77 1.94,1.78 3.62,3.8 5.21,5.9 -6.22,-1.48 -11.81,-4.5 -17.98,-6.19 -10.54,-3.2 -21.19,-4.41 -32.18,-3.39 4.35,3.66 9.17,6.37 13.27,10.32 13.42,12.48 22.88,29.45 28.15,46.89 5.93,21.05 6.41,43.69 1.45,64.98 -7.12,31.16 -27.24,58.96 -54.79,75.19 -14.15,8.58 -30.37,14.15 -46.68,16.69 -5.94,-7.65 -11.87,-15.25 -18.35,-22.44 7.34,0.64 14.62,0.75 21.91,-0.46 13.7,-2.12 27.66,-6.8 39.09,-14.79 14.44,-10.06 25.65,-24.2 32.7,-40.29 3.67,-8.68 5.35,-18.28 6.2,-27.63 0.62,-15.16 -2.56,-30.67 -9.61,-44.15 -9.31,-19.11 -25.99,-34.72 -44.98,-44.06 -13.15,-6.21 -27.67,-9.3 -42.21,-9.05 -24.86,-0.27 -50.01,8 -70.74,21.56 -3.14,1.98 -5.65,4.27 -9.37,5.02 0.89,-2.19 1.79,-4.34 3.02,-6.37 7.23,-11.46 16.14,-21.8 26.71,-30.32 17.72,-14.02 38.96,-23.14 61.22,-26.84 13.37,-2.04 26.93,-2.41 40.38,-1.02 z"
           fill="#92b1ce"
           id="path14" /><path
           d="m 475.47,413.55 c 12.63,5.28 22.62,16.27 26.67,29.34 1.64,5.5 2.76,11.35 2.5,17.1 -0.76,11.16 -4.75,21.94 -12.43,30.2 -12.6,14.23 -34,19.98 -51.97,13.63 -7.96,-2.83 -15.68,-7.36 -21.17,-13.87 -6.27,-7.37 -10.68,-16.39 -11.65,-26.09 -1.03,-11.14 1.6,-22.52 8.23,-31.64 2.35,2.83 4.71,6.61 8.31,7.86 5.66,2.29 12.67,-0.01 15.82,-5.24 1.89,-3.39 2.35,-7.83 0.84,-11.44 -1.24,-2.76 -3.55,-5.2 -5.49,-7.5 12.23,-7.24 27.3,-7.59 40.34,-2.35 z"
           fill="#020214"
           id="path15" /><path
           d="m 338.65,421.84 c -1.4,16.97 -1.75,35 1.81,51.72 4.31,20.9 15.58,40.31 30.74,55.22 8.99,8.18 18.26,15.52 29.37,20.64 12.36,5.64 26.02,9.44 39.63,10.01 -11.73,5.29 -22.2,12.49 -32.27,20.41 -15.87,-6.7 -30.67,-16.72 -42.24,-29.54 -17.95,-18.68 -29.98,-43.11 -33.15,-68.87 -2.3,-19.88 -0.8,-40.72 6.11,-59.59 z"
           fill="#92b1ce"
           id="path16" /><path
           d="m 625.41,441.51 c 7.65,-1.56 15.74,-1.09 23.31,0.66 16.88,4.15 29.97,19.06 33.14,36 4.52,18.91 -4.8,40.36 -21.62,50.07 -13.75,8.08 -31.31,9.5 -45.7,2.21 -18.59,-8.9 -30.21,-30.91 -25.38,-51.25 3.21,-18.54 17.57,-34.2 36.25,-37.69 z"
           fill="#020214"
           id="path19" /><path
           d="m 467.31,462.26 c 4.98,-1.91 10.31,-0.25 13.59,3.85 4.08,4.68 4.04,12.04 -0.2,16.6 -5.38,5.96 -16.13,4.58 -19.84,-2.58 -3.87,-6.38 -0.47,-15.36 6.45,-17.87 z"
           fill="#f1f2f3"
           id="path20" /><path
           d="m 647.47,488.49 c 5.27,-0.85 10.84,2.13 13.05,7.01 3.16,6.24 0.13,15.02 -6.53,17.53 -6.67,2.73 -14.75,-1.53 -16.6,-8.44 -2.06,-7.31 2.42,-14.99 10.08,-16.1 z"
           fill="#f1f2f3"
           id="path21" /><path
           d="m 541.98,520.91 c -0.0457,0.36031 -8.81424,51.42442 -13.01,55.36 -2.85,-7.33 -4.01,-14.76 -5.96,-22.34 -1.32,-5.67 -2.96,-11.33 -3.84,-17.08 -0.18,-2.22 -0.8,-4.95 1.09,-6.64 4.3,-4.24 10.32,-6.96 15.92,-9.08 1.73,-0.42 4.38,-1.81 5.8,-0.22 z"
           fill="#f1f2f3"
           id="path22"
           sodipodi:nodetypes="ccccccc" /><path
           d="M 541.04864,520.26123 C 543.21217,520.87737 550.39,531.23 553.05,536.98 c 1.75,3.37 -0.83,6.82 -2.28,9.78 -5.66,9.55 -13.90384,21.67221 -21.80384,29.53221 3.40492,-9.35821 4.56713,-15.11207 6.10384,-21.19221 2.57,-11.37 4.50864,-23.25877 5.97864,-34.83877 z"
           fill="#92b1ce"
           id="path23"
           sodipodi:nodetypes="cccccc"
           style="display:inline" /><path
           d="m 318.82,522.3 0.38,0.69 c -2.71,5.34 -7.33,8.68 -10.63,13.54 -6.06,8.61 -12.33,17.23 -17.73,26.27 -8.06,14.85 -15.16,30.03 -19.71,46.34 -2.83,10.36 -5.02,20.89 -7.74,31.27 -1.43,5.45 -3.71,10.5 -6.74,15.24 -4.34,6.84 -8.3,15.04 -8.27,23.31 -0.12,5.45 -0.13,10.98 0.51,16.41 1.17,8.73 2.26,17.31 5.06,25.71 1.56,5.17 3.9,9.97 6.08,14.88 3.26,9.92 6.67,20.1 11.58,29.34 -1.19,-0.45 -2.31,-0.66 -3.15,-1.69 -7.85,-9.62 -14.84,-19.87 -22.5,-29.61 -6.42,-12.17 -9.52,-25.26 -11.34,-38.82 -1.44,-10.74 -1.32,-21.59 -0.12,-32.35 1.52,-14.02 4.31,-28.07 8.93,-41.41 3.08,-9.08 7.16,-17.96 11.46,-26.52 5.06,-10.07 11.62,-19.62 18.15,-28.87 10.74,-13.89 22.72,-26.56 36.6,-37.37 2.98,-2.32 5.81,-4.6 9.18,-6.36 z"
           fill="#f1f2f3"
           id="path24" /><path
           d="m 319.2,522.99 c 1.09,1.99 2.16,4 3.17,6.03 -2.18,4.76 -5.06,9.02 -8,13.32 -7.37,11.08 -12.04,23.16 -16.15,35.74 -4.17,13.69 -4.89,27.74 -4.05,41.95 1.39,16.51 7.31,33.16 17.51,46.29 5.52,6.62 12.17,13.44 20.02,17.2 0.73,1.95 1.62,3.22 3.16,4.62 4.48,4.1 9.22,8.42 14.4,11.59 4.6,2.86 10.01,4.44 15.1,6.54 -6.85,2.47 -13.86,3.01 -21.08,3.07 -4.23,-0.88 -8.5,-1.73 -12.63,-3.02 -10.09,-3.36 -18.31,-9.02 -26.93,-15.05 -3.45,-2.44 -6.54,-5.24 -9.78,-7.93 2.72,5.69 6.91,10.09 10.7,15.02 1.51,1.79 1.03,3.15 0.6,5.24 -4.02,-1.03 -8.04,-2.04 -12.01,-3.27 7.91,9.37 17.66,15.94 27.87,22.52 10.27,9.7 23.52,16.67 36.06,22.99 0.98,1.12 1.9,2.28 2.83,3.44 -3.03,1.6 -5.52,2.15 -8.97,2.14 -13.36,0.09 -26.82,-3.42 -38.51,-9.86 -19.64,-9.88 -36.49,-27.44 -43.67,-48.42 -1.77,-4.96 -2.73,-10.06 -4.28,-15.09 -3.34,6.19 -4.32,13.05 -5.48,19.94 -1.77,12.5 -1.12,25.53 0.95,37.97 -2.18,-4.91 -4.52,-9.71 -6.08,-14.88 -2.8,-8.4 -3.89,-16.98 -5.06,-25.71 -0.64,-5.43 -0.63,-10.96 -0.51,-16.41 -0.03,-8.27 3.93,-16.47 8.27,-23.31 3.03,-4.74 5.31,-9.79 6.74,-15.24 2.72,-10.38 4.91,-20.91 7.74,-31.27 4.55,-16.31 11.65,-31.49 19.71,-46.34 5.4,-9.04 11.67,-17.66 17.73,-26.27 3.3,-4.86 7.92,-8.2 10.63,-13.54 z"
           fill="#0ca7dd"
           id="path25" /><path
           d="m 322.37,529.02 c 0.82,1.95 2.21,4.5 1.27,6.57 -1.34,3.78 -3.56,7.21 -5.09,10.92 -5.3,12.92 -9.25,26.31 -10.94,40.2 -2.07,18.71 -0.35,37.68 4.92,55.74 3.26,11.56 7.63,22.61 14.47,32.56 2.19,3.12 4.5,6.16 6.59,9.36 l -1.89,-0.85 c -7.85,-3.76 -14.5,-10.58 -20.02,-17.2 -10.2,-13.13 -16.12,-29.78 -17.51,-46.29 -0.84,-14.21 -0.12,-28.26 4.05,-41.95 4.11,-12.58 8.78,-24.66 16.15,-35.74 2.94,-4.3 5.82,-8.56 8,-13.32 z"
           fill="#2e4163"
           id="path26" /><path
           d="m 343.13,562.23 c 4.46,4.2 8.25,9.08 12.99,13.03 -6.65,5.78 -8.81,13.06 -13.38,20.27 -1.1,-1.52 -2.18,-2.9 -2.45,-4.83 -1.06,-6.21 -0.93,-12.67 -0.77,-18.94 0.93,-3.25 2.04,-6.53 3.61,-9.53 z"
           fill="#f1f2f3"
           id="path28" /><path
           d="m 500.67,567.09 c 3.38,10.66 7.1,21.11 12.15,31.11 2.2,4.17 4.06,9.38 7.51,12.65 4.49,1.22 9.23,-3.47 12.47,-6.05 10.74,-8.76 19.6,-19.16 28.2,-29.95 19.18,6.26 36.7,19.12 50.68,33.47 16.01,16.12 28.17,37.12 32.65,59.49 1.09622,5.79449 3.87297,19.31186 3.48578,32.05258 -1.8989,1.50651 -7.1469,4.04732 -8.61682,6.77385 -1.08739,2.17266 4.11179,11.47558 5.84724,16.2407 -8.22916,3.09498 -26.34261,8.78362 -35.29871,20.23755 -1.58563,9.70938 2.83647,17.42941 11.65668,27.912 -9.25094,6.53904 -11.95514,9.77196 -13.85432,12.50415 -1.00128,3.1805 1.56711,9.60929 4.44402,17.34194 -18.0122,17.97629 -43.13503,30.74628 -70.62133,35.11394 -31.47035,6.37083 -67.25215,1.63156 -95.13521,-13.28858 -18.00147,-8.55814 -36.72769,-26.28061 -43.70051,-36.21955 -2.67443,-3.8121 -2.95134,-6.87337 -7.81947,-15.34046 21.42764,-18.21535 21.36567,-24.66133 10.82067,-35.60333 -3.1223,-3.62752 -5.93965,-6.03766 -10.14589,-9.65172 -4.94119,-4.24555 -11.83925,-5.17957 -11.27157,-6.58011 0.0933,-1.31528 3.6198,-3.62497 6.75626,-6.9283 4.65437,-4.90201 0.81621,-7.5745 -1.44682,-11.82466 -3.8,-4.89 -8.46,-8.88 -12.64,-13.4 -2.1,-1.8 -0.68,-5.26 -0.5,-7.62 5.71,-37.75 28.49,-72.29 61.2,-92.06 11.99,-7.69 25.59,-13.02 39.34,-16.6 7.69,-1.75 15.94,-4.03 23.84,-3.78 z"
           fill="#f1f2f3"
           id="path29"
           sodipodi:nodetypes="ccccccccccccccccsccscscccccc"
           inkscape:label="moon"
           style="display:inline" /><path
           d="m 500.67,567.09 c 3.38,10.66 7.1,21.11 12.15,31.11 2.2,4.17 4.06,9.38 7.51,12.65 4.49,1.22 9.23,-3.47 12.47,-6.05 10.74,-8.76 19.6,-19.16 28.2,-29.95 19.18,6.26 36.7,19.12 50.68,33.47 16.01,16.12 28.17,37.12 32.65,59.49 1.09622,5.79449 3.87297,19.31186 3.48578,32.05258 -1.8989,1.50651 -7.1469,4.04732 -8.61682,6.77385 -1.08739,2.17266 4.11179,11.47558 5.84724,16.2407 -8.22916,3.09498 -26.34261,8.78362 -35.29871,20.23755 -1.58563,9.70938 2.83647,17.42941 11.65668,27.912 -9.25094,6.53904 -11.95514,9.77196 -13.85432,12.50415 -1.00128,3.1805 1.56711,9.60929 4.44402,17.34194 -18.0122,17.97629 -43.13503,30.74628 -70.62133,35.11394 -31.47035,6.37083 -67.25215,1.63156 -95.13521,-13.28858 -18.00147,-8.55814 -36.72769,-26.28061 -43.70051,-36.21955 -2.67443,-3.8121 -2.95134,-6.87337 -7.81947,-15.34046 21.42764,-18.21535 21.36567,-24.66133 10.82067,-35.60333 -3.1223,-3.62752 -5.93965,-6.03766 -10.14589,-9.65172 -4.94119,-4.24555 -11.83925,-5.17957 -11.27157,-6.58011 0.0933,-1.31528 3.6198,-3.62497 6.75626,-6.9283 4.65437,-4.90201 0.81621,-7.5745 -1.44682,-11.82466 -3.8,-4.89 -8.46,-8.88 -12.64,-13.4 -2.1,-1.8 -0.68,-5.26 -0.5,-7.62 5.71,-37.75 28.49,-72.29 61.2,-92.06 11.99,-7.69 25.59,-13.02 39.34,-16.6 7.69,-1.75 15.94,-4.03 23.84,-3.78 z"
           fill="#f1f2f3"
           id="path58"
           sodipodi:nodetypes="ccccccccccccccccsccscscccccc"
           inkscape:label="moon shadow"
           style="display:inline;fill:#92b1ce;fill-opacity:1"
           clip-path="url(#clipPath60)"
           inkscape:path-effect="#path-effect60"
           inkscape:original-d="m 500.67,567.09 c 3.38,10.66 7.1,21.11 12.15,31.11 2.2,4.17 4.06,9.38 7.51,12.65 4.49,1.22 9.23,-3.47 12.47,-6.05 10.74,-8.76 19.6,-19.16 28.2,-29.95 19.18,6.26 36.7,19.12 50.68,33.47 16.01,16.12 28.17,37.12 32.65,59.49 1.09622,5.79449 3.87297,19.31186 3.48578,32.05258 -1.8989,1.50651 -7.1469,4.04732 -8.61682,6.77385 -1.08739,2.17266 4.11179,11.47558 5.84724,16.2407 -8.22916,3.09498 -26.34261,8.78362 -35.29871,20.23755 -1.58563,9.70938 2.83647,17.42941 11.65668,27.912 -9.25094,6.53904 -11.95514,9.77196 -13.85432,12.50415 -1.00128,3.1805 1.56711,9.60929 4.44402,17.34194 -18.0122,17.97629 -43.13503,30.74628 -70.62133,35.11394 -31.47035,6.37083 -67.25215,1.63156 -95.13521,-13.28858 -18.00147,-8.55814 -36.72769,-26.28061 -43.70051,-36.21955 -2.67443,-3.8121 -2.95134,-6.87337 -7.81947,-15.34046 21.42764,-18.21535 21.36567,-24.66133 10.82067,-35.60333 -3.1223,-3.62752 -5.93965,-6.03766 -10.14589,-9.65172 -4.94119,-4.24555 -11.83925,-5.17957 -11.27157,-6.58011 0.0933,-1.31528 3.6198,-3.62497 6.75626,-6.9283 4.65437,-4.90201 0.81621,-7.5745 -1.44682,-11.82466 -3.8,-4.89 -8.46,-8.88 -12.64,-13.4 -2.1,-1.8 -0.68,-5.26 -0.5,-7.62 5.71,-37.75 28.49,-72.29 61.2,-92.06 11.99,-7.69 25.59,-13.02 39.34,-16.6 7.69,-1.75 15.94,-4.03 23.84,-3.78 z" /><path
           d="m 339.52,571.76 c -0.16,6.27 -0.29,12.73 0.77,18.94 0.27,1.93 1.35,3.31 2.45,4.83 4.57,-7.21 6.73,-14.49 13.38,-20.27 4.39,3.47 8.54,7.25 13.03,10.58 4.1,3.07 8.7,5.28 12.74,8.43 l 0.12,1.63 c -4.62,7.98 -10.38,15.36 -14.69,23.41 -3.2,5.73 -5.47,11.41 -10.36,16.02 -8.1,-6 -13.29,-16.39 -16.65,-25.67 -2.86,-7.51 -3.27,-15.03 -4.42,-22.89 0.85,-5.09 2.11,-10.08 3.63,-15.01 z"
           fill="#0ca7dd"
           id="path30" /><path
           d="m 335.89,586.77 c 1.15,7.86 1.56,15.38 4.42,22.89 3.36,9.28 8.55,19.67 16.65,25.67 4.89,-4.61 7.16,-10.29 10.36,-16.02 4.31,-8.05 10.07,-15.43 14.69,-23.41 1.07,7.66 -2.96,12.39 -6.58,18.51 -7.98,12.58 -13.94,26.56 -18.11,40.85 -1.07,4.04 -2.19,8.03 -3.95,11.84 -7.76,-11.47 -13.1,-24.79 -16.27,-38.24 -2.89,-14.07 -4.9,-27.94 -1.21,-42.09 z"
           fill="#2e4163"
           id="path31" /><path
           d="m 754.1,587.65 c 4.1,4.52 5.65,9.73 8.05,15.21 4.52,10.7 8.05,21.82 10.89,33.08 2.82,12.67 5.44,25.11 5.52,38.16 0.74,23.04 -2.71,46.01 -10.87,67.6 -4.39,10.75 -9.57,21.12 -16.56,30.44 -8.85,12.88 -21.26,23.45 -34.68,31.32 -6.95,3.71 -14.55,7.49 -22.41,8.66 4.34,-3.21 9.25,-5.22 13.42,-8.65 2.94,-2.38 5.79,-4.88 8.56,-7.46 4.6,-4.26 8.34,-9.62 11.95,-14.74 -8.09,4.08 -15.27,9.44 -23.65,13.02 -11.41,4.92 -23.85,8.32 -36.3,8.81 -10.02,0.03 -21.36,-0.93 -30.33,-5.75 -3.61,-2.19 -8.11,-4.41 -8.9,-9.01 8.5,-0.25 16.72,1.63 25.21,1.62 16.26,0.27 34.09,-2.45 48.41,-10.54 7.87,-4.46 16.34,-9.54 22.48,-16.26 -6.61,1.16 -13.1,2.68 -19.83,3.15 -14.78,2.01 -29.51,3.67 -44.38,1.02 -11.75,-2.42 -22.83,-8.62 -30.97,-17.44 10.91,4.25 22.7,6.41 34.21,8.36 3.32,0.66 3.82,4.17 7.06,4.82 6.44,1.69 13.39,1.28 19.85,-0.1 6.41,-1.38 12.53,-2.74 18.42,-5.7 6.24,-3.19 12.23,-5.94 17.81,-10.21 6.51,-4.77 12.33,-10.4 17.09,-16.93 1.17,-1.62 1.66,-3.42 2.27,-5.29 -3.5,-0.19 -6.9,-0.01 -10.23,1.12 0.16,-0.59 0.33,-1.17 0.49,-1.76 -17.33,2.32 -34.98,3.48 -51.86,-1.97 16.78,1.73 32.55,-3.26 47.07,-11.3 4.1,-2.31 8.28,-5.13 11.35,-8.72 2.97,-3.44 4.01,-8.43 2.27,-12.68 -1.47,-3.57 -4.63,-6.53 -7.54,-8.96 3.26,-7.48 5.84,-16.35 6.82,-24.46 -2.98,4.63 -5.41,9.51 -8.74,13.94 -6.22,8.29 -13.01,15.77 -22.09,21.01 1.54,-2.47 3.06,-4.94 4.8,-7.27 8.15,-10.87 13.75,-23.23 18.02,-36.06 1.72,-5.2 2.44,-10.43 3.73,-15.75 3.05,6.15 3.76,12.79 6.26,19.15 4.96,-13.13 6.78,-27.17 7.23,-41.13 0.29,-7.48 -0.45,-14.9 0.1,-22.35 z"
           fill="#2e4163"
           id="path32" /><path
           d="m 716.02,614.18 c 0.24,1.92 0.28,3.85 0.1,5.78 -1.28,11.52 -3.72,23.11 -8.41,33.76 -6.85,15.23 -19.35,28.5 -34.69,35.31 -1.16,-5.79 -1.46,-11.68 -2.59,-17.48 -1.6,-8.39 -3.39,-16.58 -6.41,-24.61 -1.35,-3.54 -2.63,-7.1 -3.65,-10.76 5.23,-1.46 10.54,-2.45 15.71,-4.09 8.08,-2.54 15.94,-5.79 23.57,-9.45 5.64,-2.66 10.62,-6.12 16.37,-8.46 z"
           fill="#2e4163"
           id="path35" /><path
           d="m 552.31017,625.49842 c 9.14516,-1.11956 18.39097,4.74241 22.21508,12.96929 3.7109,6.96894 2.94356,15.23356 -1.14472,21.85028 -5.92486,9.7364 -19.03251,14.03853 -29.30982,8.60426 -10.11378,-4.8053 -15.49773,-16.56697 -12.02584,-27.34745 2.65424,-9.28354 10.98175,-14.89392 20.2653,-16.07638 z"
           fill="#020214"
           id="path36"
           style="stroke-width:1.25793" /><path
           d="m 744.79,656.11 c -0.98,8.11 -3.56,16.98 -6.82,24.46 -1.74,2.46 -3.48,4.81 -4.76,7.55 -1.73,3.57 -2.84,7.54 -5.49,10.57 -2.48,2.83 -5.62,5.17 -8.66,7.37 -5.54,3.86 -10.91,7.43 -17.32,9.71 -7.7,2.72 -15.6,5.01 -23.85,4.53 -5.16,-1.58 -10.36,-4.01 -14.48,-7.52 l 0.07,-1.21 c 4.72,-1.52 9.66,-2.34 14.45,-3.65 13.11,-3.36 25.45,-8.24 36.03,-16.86 9.08,-5.24 15.87,-12.72 22.09,-21.01 3.33,-4.43 5.76,-9.31 8.74,-13.94 z"
           fill="#f1f2f3"
           id="path37" /><path
           d="m 468.76074,668.85224 c 16.15,-2.79 32.28,8.26 36.12,24.05 3.04,11.98 -1.37,24.44 -10.74,32.33 -8.41,7.22 -20.87,9.57 -31.3,5.78 -12.81,-4.73 -21.7,-17.89 -21.24,-31.54 0.28,-9 4.41,-17.67 11.3,-23.48 4.49,-3.9 10.03,-6.17 15.86,-7.14 z"
           fill="#020214"
           id="path38" /><path
           d="m 264.56,678.05 c 1.55,5.03 2.51,10.13 4.28,15.09 7.18,20.98 24.03,38.54 43.67,48.42 11.69,6.44 25.15,9.95 38.51,9.86 3.45,0.01 5.94,-0.54 8.97,-2.14 -0.93,-1.16 -1.85,-2.32 -2.83,-3.44 9.36,2.27 19.32,2.42 28.86,1.38 1.77,-0.12 3.12,-0.97 4.58,-1.9 0.55,0.57 1.11,1.14 1.65,1.72 -5.77,4.88 -13.73,7.4 -20.94,9.26 -14.1,3.39 -27.28,1.26 -41.27,-1.32 -14.41,-3.25 -28.69,-7.6 -42.26,-13.49 9.01,13.16 23.18,23.34 37.28,30.46 11.1,5.61 23.62,7.95 35.89,9.24 6.44,0.74 12.9,0.47 19.36,1.09 -0.33,1.38 -0.2,2.63 -1.38,3.63 -3.22,2.81 -7.94,4.16 -12.04,5.04 -14.56,2.7 -29.34,0.65 -43.04,-4.74 -10.61,-4.01 -20.44,-10.76 -29.34,-17.72 -5.83,-4.49 -10.27,-10.28 -16.26,-14.54 1.62,7.8 5.41,14.47 9.78,21.03 3.57,5.41 8.47,9.58 12.18,14.87 -9.09,-3.9 -18.17,-10.14 -24.9,-17.42 -0.93,-2.66 -2.09,-4.82 -3.7,-7.13 -4.91,-9.24 -8.32,-19.42 -11.58,-29.34 -2.07,-12.44 -2.72,-25.47 -0.95,-37.97 1.16,-6.89 2.14,-13.75 5.48,-19.94 z"
           fill="#2e4163"
           id="path39" /><path
           d="m 737.97,680.57 c 2.91,2.43 6.07,5.39 7.54,8.96 1.74,4.25 0.7,9.24 -2.27,12.68 -3.07,3.59 -7.25,6.41 -11.35,8.72 -14.52,8.04 -30.29,13.03 -47.07,11.3 -2.33,-0.58 -4.63,-1.24 -6.93,-1.93 8.25,0.48 16.15,-1.81 23.85,-4.53 6.41,-2.28 11.78,-5.85 17.32,-9.71 3.04,-2.2 6.18,-4.54 8.66,-7.37 2.65,-3.03 3.76,-7 5.49,-10.57 1.28,-2.74 3.02,-5.09 4.76,-7.55 z"
           fill="#0ca7dd"
           id="path40" /><path
           d="m 293.94,683.34 c 3.24,2.69 6.33,5.49 9.78,7.93 8.62,6.03 16.84,11.69 26.93,15.05 4.13,1.29 8.4,2.14 12.63,3.02 -3.28,0.3 -6.46,0.68 -9.74,0.27 -9.6,-1.29 -19.05,-3.08 -28.3,-6.01 0.43,-2.09 0.91,-3.45 -0.6,-5.24 -3.79,-4.93 -7.98,-9.33 -10.7,-15.02 z"
           fill="#2e4163"
           id="path41" /><path
           d="m 331.7,683.52 1.89,0.85 c 5.93,4.74 12.61,8.02 19.03,12.01 5.11,3.17 10.6,5.58 15.79,8.59 -1.35,0.44 -2.7,0.87 -4.05,1.3 -5.09,-2.1 -10.5,-3.68 -15.1,-6.54 -5.18,-3.17 -9.92,-7.49 -14.4,-11.59 -1.54,-1.4 -2.43,-2.67 -3.16,-4.62 z"
           fill="#f1f2f3"
           id="path42" /><path
           d="m 591.7804,676.0134 c 10.66833,-2.88045 22.54572,2.03882 27.4887,12.03149 4.35032,8.29759 3.12939,18.50361 -2.80931,25.68694 -7.40857,9.04438 -21.60928,11.45066 -31.49526,5.09709 -9.26959,-5.74903 -13.41838,-17.94649 -9.4474,-28.14065 2.43002,-7.50339 8.70062,-12.79014 16.26327,-14.67487 z"
           fill="#020214"
           id="path43"
           style="stroke-width:1.18537" /><path
           d="m 321.1,722.85 c 5.7,2.63 11.5,4.95 17.63,6.4 11.37,2.96 23.05,3.85 34.45,6.58 6.56,1.56 12.68,4.62 17.42,9.49 -1.46,0.93 -2.81,1.78 -4.58,1.9 -9.54,1.04 -19.5,0.89 -28.86,-1.38 -12.54,-6.32 -25.79,-13.29 -36.06,-22.99 z"
           fill="#f1f2f3"
           id="path45" /><path
           d="m 746.42,724.84 c -0.61,1.87 -1.1,3.67 -2.27,5.29 -4.76,6.53 -10.58,12.16 -17.09,16.93 -5.58,4.27 -11.57,7.02 -17.81,10.21 -5.89,2.96 -12.01,4.32 -18.42,5.7 -6.46,1.38 -13.41,1.79 -19.85,0.1 -3.24,-0.65 -3.74,-4.16 -7.06,-4.82 5.24,0.57 10.3,-0.17 15.21,-2.03 7.2,-2.72 14.53,-5.83 20.97,-10.1 2.08,-1.63 4.43,-2.55 4.26,-5.6 5.02,-1.46 9.94,-3.34 14.69,-5.5 5.92,-2.7 11.26,-6.37 17.14,-9.06 3.33,-1.13 6.73,-1.31 10.23,-1.12 z"
           fill="#0ca7dd"
           id="path46" /><path
           d="m 540.37103,750.83803 c 14.93526,-2.58014 29.85201,7.63872 33.40318,22.24104 2.81135,11.07891 -1.26696,22.60172 -9.93217,29.89825 -7.77743,6.67694 -19.30024,8.85018 -28.94573,5.34525 -11.84648,-4.37423 -20.0678,-16.54437 -19.64241,-29.16767 0.25895,-8.32305 4.07831,-16.34092 10.45006,-21.71391 4.15228,-3.60667 9.27558,-5.70592 14.66707,-6.60296 z"
           fill="#020214"
           id="path38-9"
           style="stroke-width:0.924784" /><path
           d="m 245.96,734 c 7.66,9.74 14.65,19.99 22.5,29.61 0.84,1.03 1.96,1.24 3.15,1.69 1.61,2.31 2.77,4.47 3.7,7.13 -12.87,-10.25 -23.48,-22.9 -29.35,-38.43 z"
           fill="#92b1ce"
           id="path47" /><path
           d="m 671.3,742.35 c 11,0.81 22.25,0.44 33.06,-1.83 0.17,3.05 -2.18,3.97 -4.26,5.6 -6.44,4.27 -13.77,7.38 -20.97,10.1 -4.91,1.86 -9.97,2.6 -15.21,2.03 -11.51,-1.95 -23.3,-4.11 -34.21,-8.36 3,-3.69 7.14,-5.16 11.48,-6.73 9.53,-3.27 20.3,-1.77 30.11,-0.81 z"
           fill="#f1f2f3"
           id="path48" /><path
           d="m 376.99095,806.78218 c 4.38479,-2.59126 6.2356,-3.5302 9.90779,-5.48023 4.58544,7.86546 6.6914,14.13559 14.20126,21.32805 -8.14,-3.78 -17.85905,-9.28782 -24.10905,-15.84782 z"
           fill="#92b1ce"
           id="path53"
           sodipodi:nodetypes="cccc"
           style="display:inline;fill:#2e4163;fill-opacity:1" /><path
           d="m 631.08,813.83 c 2.7,0.85 4.96,2.31 7.16,4.05 -5.77,4.42 -12.25,6.89 -19.11,9.04 3.93,-4.39 7.77,-8.92 11.95,-13.09 z"
           fill="#2e4163"
           id="path54" /></g></g></g><g
     id="g66"
     inkscape:label="ic_launcher_macos"
     style="display:none"><use
       x="0"
       y="0"
       xlink:href="#g63"
       id="use66"
       transform="matrix(0.8046875,0,0,0.8046875,99.999998,100)"
       inkscape:label="background"
       clip-path="url(#clipPath1)" /><use
       x="0"
       y="0"
       xlink:href="#g62"
       id="use65"
       transform="matrix(0.8046875,0,0,0.8046875,99.999994,99.999998)"
       inkscape:label="foreground" /></g><g
     id="g68"
     inkscape:label="android"
     style="display:none"><use
       x="0"
       y="0"
       xlink:href="#path1-4-3-8"
       id="use69"
       style="display:inline"
       inkscape:label="ic_launcher_background" /><use
       x="0"
       y="0"
       xlink:href="#g62"
       id="use67"
       transform="matrix(0.63476563,0,0,0.63476563,187,187)"
       inkscape:label="ic_launcher_foreground"
       style="display:inline" /></g></svg>
